<svg width="22" height="22" viewBox="0 0 22 22" fill="none" xmlns="http://www.w3.org/2000/svg">
<circle cx="11" cy="11" r="11" fill="#94C563"/>
<path d="M8.6079 17.0333H10.103C11.221 17.0333 11.702 16.3941 11.702 15.2755V5.47477C11.702 5.14186 11.39 4.96875 11.078 4.96875C10.766 4.96875 10.454 5.14186 10.454 5.47477V15.3554C10.454 15.8614 10.207 16.1144 9.71295 16.1144H8.6079C8.33489 16.1144 8.20488 16.3408 8.20488 16.5672C8.20488 16.8069 8.33489 17.0333 8.6079 17.0333ZM13.9251 8.60408C14.6792 10.1088 15.3032 11.9331 15.7452 13.5178C15.8232 13.7974 16.0182 13.9173 16.2392 13.9173C16.7072 13.9173 17.0323 13.5178 17.0323 13.0517C17.0323 12.8786 16.9933 12.6922 16.9413 12.5324C16.4472 11.0276 15.6022 9.45632 14.6272 8.13802C14.5882 8.08475 14.4972 8.0448 14.3931 8.0448C14.1721 8.0448 13.8861 8.19128 13.8861 8.44429C13.8861 8.49755 13.8991 8.55082 13.9251 8.60408ZM4.96774 13.5977C4.96774 13.8241 5.20175 14.0238 5.43576 14.0238C5.53977 14.0238 5.64377 13.9705 5.72178 13.8773C6.50181 12.9452 7.76286 9.85581 8.03587 8.71061C8.04887 8.65735 8.04887 8.6174 8.04887 8.57745C8.04887 8.16465 7.68486 7.95159 7.32084 7.95159C6.99583 7.95159 6.82682 8.16465 6.74882 8.4576C6.3198 10.0556 5.70877 11.9864 4.99374 13.4512C4.96774 13.5045 4.96774 13.5444 4.96774 13.5977Z" fill="#3B4F28"/>
</svg>
